<?xml version="1.0" encoding="UTF-8"?>
<svg version="1.1" xmlns="http://www.w3.org/2000/svg" width="3372" height="3371">
<path d="M0 0 C1112.76 0 2225.52 0 3372 0 C3372 1112.43 3372 2224.86 3372 3371 C2259.24 3371 1146.48 3371 0 3371 C0 2258.57 0 1146.14 0 0 Z " fill="#FEFEFE" transform="translate(0,0)"/>
<path d="M0 0 C4.30815172 0.00816336 8.61627449 -0.00138822 12.92442311 -0.00851054 C20.48116591 -0.01862676 28.03784363 -0.01774102 35.59458776 -0.00945991 C46.90718691 0.00288081 58.21973385 -0.0022353 69.53233428 -0.01060784 C88.81753808 -0.02437479 108.1027181 -0.02397397 127.38792403 -0.0157652 C146.92163686 -0.00750139 166.45533406 -0.00577848 185.98904784 -0.01197721 C187.22440706 -0.01236473 188.45976628 -0.01275224 189.73256062 -0.01315151 C194.76425568 -0.01475138 199.79595071 -0.01639751 204.82764573 -0.01810233 C251.65589993 -0.03395735 298.48414022 -0.03506322 345.31239493 -0.02665998 C346.71303995 -0.02640907 348.11368498 -0.02615817 349.51433 -0.02590729 C350.20849739 -0.02578293 350.90266478 -0.02565856 351.61786755 -0.02553042 C360.77254485 -0.0238908 369.92722216 -0.02228096 379.08189948 -0.02075054 C379.7817099 -0.02063305 380.48152033 -0.02051557 381.20253714 -0.02039453 C413.65404455 -0.01498723 446.10555057 -0.01627748 478.55705819 -0.0190419 C482.09882805 -0.01934129 485.64059792 -0.01962779 489.18236779 -0.01991573 C499.85798196 -0.02078752 510.53359612 -0.02167834 521.20921028 -0.02260853 C553.76156472 -0.02544186 586.31391916 -0.02724277 618.86627371 -0.02815343 C619.59101995 -0.02817404 620.31576619 -0.02819464 621.06247444 -0.02821587 C667.98599699 -0.02953174 714.90951799 -0.02623151 761.83304007 -0.0196047 C762.95638912 -0.01944666 762.95638912 -0.01944666 764.10243208 -0.01928544 C789.18589891 -0.01575652 814.26936571 -0.01198826 839.3528325 -0.00819555 C915.21461056 0.00326724 991.07638304 0.00954452 1126.57071464 -0.00854154 C1151.6577241 -0.01233121 1176.74473357 -0.01607679 1201.83174307 -0.0196047 C1202.95519917 -0.0197633 1202.95519917 -0.0197633 1204.10135134 -0.0199251 C1251.00800312 -0.02654136 1297.91465382 -0.02948714 1344.82130606 -0.02815343 C1345.90798079 -0.02812303 1345.90798079 -0.02812303 1347.01660854 -0.02809201 C1379.54597241 -0.02717184 1412.07533618 -0.02525691 1444.60469994 -0.02242192 C1455.27318739 -0.02149329 1465.94167485 -0.02061029 1476.61016231 -0.01974278 C1480.14910843 -0.0194548 1483.68805455 -0.01916274 1487.22700067 -0.0188612 C1519.67998089 -0.01610446 1552.13295925 -0.01530482 1584.58593924 -0.02075054 C1585.28561751 -0.02086745 1585.98529578 -0.02098437 1586.70617642 -0.02110483 C1595.85987098 -0.02264016 1605.01356552 -0.02426809 1614.16726007 -0.02590729 C1614.86120937 -0.02603153 1615.55515868 -0.02615577 1616.27013675 -0.02628378 C1617.67017531 -0.02653446 1619.07021387 -0.02678535 1620.47025243 -0.02703647 C1667.85387046 -0.03551316 1715.23747329 -0.03288664 1762.62109066 -0.01681775 C1767.63252554 -0.01516066 1772.64396043 -0.01355055 1777.65539534 -0.01197721 C1779.50024442 -0.01139128 1779.50024442 -0.01139128 1781.38236318 -0.01079351 C1800.86804046 -0.00487306 1820.35370212 -0.00899954 1839.83937798 -0.01728423 C1858.99253169 -0.02521405 1878.145659 -0.02244539 1897.29880935 -0.00824196 C1908.53134225 -0.00023023 1919.76380285 -0.00041338 1930.99633231 -0.01268675 C1938.45596841 -0.02001756 1945.91554821 -0.01647322 1953.3751775 -0.00408619 C1957.60389221 0.00263239 1961.83246294 0.00475111 1966.06117119 -0.00653574 C1997.92720805 -0.08573493 1997.92720805 -0.08573493 2011.79661734 3.38222598 C2012.85204901 3.62577497 2013.90748067 3.86932396 2014.99489511 4.12025323 C2021.66212696 5.70683735 2027.655152 8.38847546 2033.79661734 11.38222598 C2035.21587515 12.02804629 2035.21587515 12.02804629 2036.66380484 12.68691348 C2066.74025583 26.80768755 2089.1545305 54.0987115 2100.33226187 85.04726504 C2106.39887625 102.79335134 2107.52130425 119.68136868 2106.79661734 138.38222598 C2106.77003043 139.10651797 2106.74344351 139.83080996 2106.71605093 140.5770502 C2105.34310132 167.90226788 2090.56902738 193.69463197 2072.42455405 213.31271736 C2071.90929506 213.86982651 2071.39403606 214.42693566 2070.86316316 215.0009269 C2064.26658388 222.08344711 2057.41063423 228.90694471 2050.56212993 235.74436389 C2049.04288959 237.26484946 2047.52386782 238.78555346 2046.00504254 240.30645364 C2041.83842064 244.47750611 2037.66871331 248.64546198 2033.49848553 252.81290886 C2028.94233611 257.36713004 2024.38909774 261.92426014 2019.83547939 266.48101179 C2011.82620509 274.49516983 2003.81491466 282.50730899 1995.80246779 290.51829505 C1987.16226106 299.15694561 1978.52315388 307.79669361 1969.88535362 316.43775043 C1969.33701309 316.98629626 1968.78867257 317.53484208 1968.22371566 318.10001051 C1965.42380112 320.90098261 1962.62390355 323.70197166 1959.82401144 326.50296618 C1939.38706175 346.94788409 1918.94762921 367.39031837 1898.50693305 387.8314905 C1877.78944615 408.54947208 1857.07303591 429.26852933 1836.35793479 449.98889636 C1835.03685338 451.3103113 1833.71577195 452.6317262 1832.39469047 453.95314107 C1827.06803304 459.28114664 1821.74138319 464.60915978 1816.41474203 469.93718162 C1757.84189527 528.52518911 1699.26485875 587.1090066 1640.68667134 645.69167428 C1639.94590719 646.43249512 1639.20514304 647.17331596 1638.44193148 647.93658592 C1634.69497359 651.68383034 1630.94801494 655.43107402 1627.20105506 659.17831646 C1595.80243349 690.57931359 1564.40447905 721.98097776 1533.00664564 753.38276298 C1517.96852712 768.42277407 1502.93037656 783.46275314 1487.8922183 798.50272452 C1487.14430261 799.2507304 1486.39638692 799.99873628 1485.62580712 800.769409 C1449.63087852 836.76867367 1413.63574605 872.76773449 1377.64038069 908.76656245 C1376.87256718 909.53444983 1376.10475367 910.30233721 1375.31367309 911.09349391 C1326.38682702 960.02503442 1277.45904544 1008.95563939 1228.53067465 1057.88565528 C1224.51956415 1061.89690135 1220.50845537 1065.90814915 1216.49734655 1069.91939691 C1210.06658162 1076.35038432 1203.63581613 1082.78137117 1197.20504998 1089.21235737 C1196.40817043 1090.00926418 1195.61129088 1090.806171 1194.79026347 1091.62722651 C1193.179707 1093.2378381 1191.56915052 1094.84844968 1189.95859405 1096.45906126 C1178.66102169 1107.75702024 1167.36345 1119.05497987 1156.06588162 1130.35294282 C1152.02338234 1134.39558321 1147.98088253 1138.43822309 1143.93838155 1142.48086179 C1067.57708779 1218.84476017 991.21715903 1295.21002255 914.86253531 1371.58059024 C914.05854328 1372.38475006 913.25455125 1373.18890988 912.42619583 1374.01743818 C887.30524847 1399.14363638 862.18446286 1424.2699963 837.06370718 1449.39638613 C811.2877611 1475.17811317 785.5117898 1500.959815 759.73567565 1526.741374 C758.94202073 1527.53519672 758.14836582 1528.32901944 757.33066076 1529.1468974 C707.63110692 1578.85694311 657.92973855 1628.565174 608.22644026 1678.27147578 C607.07508115 1679.42290511 607.07508115 1679.42290511 605.90046225 1680.59759564 C572.19174419 1714.30836428 538.48262291 1748.01872971 504.77305521 1781.72864874 C491.2120584 1795.28978882 477.65110929 1808.85097659 464.09018191 1822.4121861 C461.8417137 1824.66069984 459.59324355 1826.90921164 457.34477304 1829.15772308 C422.94819004 1863.55495225 388.55276423 1897.95333744 354.16078599 1932.35517071 C353.41899425 1933.09717482 352.67720252 1933.83917892 351.91293226 1934.60366799 C339.98020343 1946.53982562 328.0475667 1958.47607531 316.11494081 1970.41233584 C282.24500916 2004.29257916 248.37431418 2038.17205773 214.49825628 2072.04617571 C213.46739789 2073.07697599 213.46739789 2073.07697599 212.41571408 2074.12860052 C197.42311935 2089.12031872 182.43010694 2104.11161913 167.43668497 2119.10250999 C161.45711481 2125.08108339 155.47759971 2131.05971185 149.49810202 2137.03835772 C148.8458372 2137.69052666 148.19357238 2138.34269559 147.52154196 2139.01462722 C126.82850916 2159.70467031 106.1400931 2180.39932185 85.45433784 2201.09664077 C65.08755678 2221.47476876 44.71623487 2241.8483448 24.33827683 2262.21529627 C21.5472236 2265.00484336 18.75622278 2267.79444288 15.96525341 2270.58407387 C15.1456708 2271.40325741 15.1456708 2271.40325741 14.30953097 2272.23899011 C5.69564774 2280.84895231 -2.91322139 2289.46390964 -11.51995302 2298.08102015 C-19.94150838 2306.51252636 -28.36850039 2314.93856511 -36.80095494 2323.35917113 C-41.28963472 2327.84184983 -45.77593286 2332.32684163 -50.25561372 2336.81851477 C-54.32298267 2340.89668479 -58.39723587 2344.96784462 -62.47700257 2349.03361095 C-63.93612082 2350.49011271 -65.39276199 2351.94910161 -66.84652598 2353.41094761 C-91.46398668 2378.15603218 -120.63705476 2397.49258997 -156.79517953 2397.7044916 C-158.02301157 2397.70126895 -159.2508436 2397.69804629 -160.51588266 2397.69472598 C-161.73211313 2397.71083926 -162.9483436 2397.72695254 -164.20142953 2397.7435541 C-172.88732659 2397.7481669 -180.79366932 2396.49556435 -189.20338266 2394.38222598 C-190.36909799 2394.10274111 -191.53481332 2393.82325625 -192.73585336 2393.53530215 C-213.45336593 2388.42606184 -230.92343388 2376.97139949 -246.20338266 2362.38222598 C-247.10250375 2361.57785098 -247.10250375 2361.57785098 -248.01978891 2360.75722598 C-266.98976264 2343.15168191 -278.99581857 2314.56634209 -280.38633436 2289.02122683 C-280.45820676 2285.28152646 -280.46767848 2281.54673897 -280.45408099 2277.80636822 C-280.45606759 2276.35938668 -280.45893023 2274.91240613 -280.46257988 2273.46542784 C-280.47006449 2269.49692706 -280.46516357 2265.52852488 -280.45819998 2261.56002676 C-280.45281799 2257.22358792 -280.45910466 2252.8871629 -280.46387367 2248.55072551 C-280.47065623 2240.92386891 -280.47000002 2233.2970409 -280.46450658 2225.67018369 C-280.45631977 2214.25239605 -280.45967284 2202.83463159 -280.46527187 2191.41684342 C-280.47447486 2171.95744801 -280.47417039 2152.49806306 -280.46871011 2133.03866671 C-280.46320956 2113.31566371 -280.46204535 2093.59266759 -280.46618478 2073.86966418 C-280.46644313 2072.62440944 -280.46670147 2071.37915471 -280.46696765 2070.09616498 C-280.46803418 2065.02450975 -280.46913159 2059.95285452 -280.4702682 2054.8811993 C-280.48085053 2007.62852206 -280.4815699 1960.37585122 -280.4759733 1913.1231737 C-280.47580602 1911.70843789 -280.47563876 1910.29370208 -280.47547151 1908.87896626 C-280.47538859 1908.1778176 -280.47530568 1907.47666893 -280.47522026 1906.75427334 C-280.47412722 1897.50791624 -280.473054 1888.26155914 -280.47203367 1879.01520203 C-280.47195535 1878.3084171 -280.47187702 1877.60163218 -280.47179633 1876.87342952 C-280.46819425 1844.12408938 -280.46905068 1811.37474986 -280.47089458 1778.62540963 C-280.47109417 1775.05295244 -280.47128517 1771.48049526 -280.47147713 1767.90803808 C-280.47205831 1757.14021879 -280.47265219 1746.3723995 -280.47327233 1735.60458022 C-280.47516144 1702.76814132 -280.47636189 1669.93170242 -280.47696893 1637.09526347 C-280.47698267 1636.36411585 -280.47699641 1635.63296823 -280.47701056 1634.87966462 C-280.47788811 1587.52502583 -280.47568619 1540.17038773 -280.47126977 1492.81574916 C-280.47119954 1492.05972001 -280.4711293 1491.30369087 -280.47105694 1490.52475175 C-280.46870422 1465.20136741 -280.46619209 1439.87798309 -280.46366368 1414.55459876 C-280.45602372 1337.98464068 -280.45183451 1261.41468506 -280.46389434 1124.68118507 C-280.46642077 1099.3715781 -280.46891781 1074.06197113 -280.47126977 1048.75236415 C-280.47134026 1047.99675881 -280.47141075 1047.24115348 -280.47148338 1046.46265102 C-280.47589442 999.13841635 -280.47785801 951.81418217 -280.47696893 904.48994731 C-280.47695542 903.7590016 -280.47694191 903.0280559 -280.47692799 902.27496033 C-280.47631452 869.45301118 -280.47503787 836.63106208 -280.47314793 803.80911298 C-280.47252883 793.04425514 -280.47194016 782.2793973 -280.47136183 771.51453946 C-280.47116984 767.94355791 -280.47097514 764.37257636 -280.47077411 760.80159481 C-280.46893618 728.05279722 -280.46840342 695.30400044 -280.47203367 662.55520295 C-280.47211161 661.84910051 -280.47218956 661.14299806 -280.47226986 660.41549858 C-280.47329343 651.17758312 -280.47437872 641.93966768 -280.47547151 632.70175223 C-280.47555433 632.00140549 -280.47563716 631.30105875 -280.47572249 630.57948939 C-280.47588962 629.1665402 -280.47605688 627.75359101 -280.47622429 626.34064183 C-280.48187614 578.51377178 -280.48012307 530.68690886 -280.46941181 482.86003915 C-280.46830709 477.80109082 -280.46723368 472.74214249 -280.46618478 467.68319415 C-280.46592437 466.44162897 -280.46566396 465.20006379 -280.46539565 463.92087542 C-280.46144911 444.25251404 -280.46419923 424.58415953 -280.46972279 404.91579877 C-280.47501024 385.58124401 -280.47316192 366.24670087 -280.46369462 346.91214759 C-280.45835467 335.57389243 -280.45847347 324.23566911 -280.46665781 312.89741546 C-280.47154688 305.36637687 -280.46917916 297.83536304 -280.46092411 290.30432744 C-280.45644728 286.03580745 -280.45502746 281.76735082 -280.46255714 277.49883368 C-280.49567539 257.32021096 -280.04598637 237.78716282 -275.89088266 217.94472598 C-275.67141977 216.88326357 -275.45195688 215.82180117 -275.2258436 214.72817324 C-265.24102508 167.27171642 -244.08544927 125.83163594 -212.20338266 89.38222598 C-211.76268442 88.87691348 -211.32198617 88.37160098 -210.86793344 87.85097598 C-199.55067025 74.96012225 -186.95306234 63.61873986 -173.20338266 53.38222598 C-172.56594125 52.90430606 -171.92849985 52.42638613 -171.27174203 51.93398379 C-141.6557156 29.88908089 -108.02442617 15.02792228 -72.20338266 6.38222598 C-70.30846078 5.92396426 -70.30846078 5.92396426 -68.37525766 5.45644473 C-45.78449638 0.51788144 -23.01268807 -0.06186355 0 0 Z " fill="#000000" transform="translate(771.2033826587722,486.6177740227431)"/>
<path d="M0 0 C43.30454997 -0.09680362 86.60906133 -0.1787344 129.91370106 -0.22249222 C133.77625849 -0.22642901 137.6388159 -0.23039489 141.50137329 -0.234375 C142.93032978 -0.23583017 142.93032978 -0.23583017 144.38815408 -0.23731473 C158.77265818 -0.25221456 173.15711777 -0.27772419 187.54159546 -0.30871582 C203.98397026 -0.3440971 220.42629326 -0.36506192 236.86870742 -0.36730725 C246.12632397 -0.36897397 255.38377037 -0.38162341 264.64134402 -0.41012044 C270.86742379 -0.42814153 277.09340116 -0.43126641 283.31950073 -0.4227358 C286.86705423 -0.4182782 290.41429275 -0.41987948 293.96180141 -0.43957067 C322.68654673 -0.57299883 347.65778297 4.23689074 372.97058105 18.05072021 C374.06370605 18.63982178 375.15683105 19.22892334 376.28308105 19.83587646 C387.01657349 25.8460846 395.99102086 33.7093767 404.97058105 42.05072021 C405.63702637 42.65142334 406.30347168 43.25212646 406.9901123 43.87103271 C432.56733065 67.93758032 446.74894357 104.33787327 448.08081704 138.91236869 C448.26429564 146.57776345 448.23960673 154.24355557 448.22454834 161.91061401 C448.22685666 164.48877261 448.23003567 167.06693055 448.23400283 169.64508712 C448.2411758 175.21976747 448.24103842 180.79440897 448.23590851 186.36909103 C448.22830082 194.6591418 448.23223302 202.94916019 448.23832512 211.23921079 C448.24882512 226.05009689 448.24795648 240.86096567 448.2421673 255.6718534 C448.23712658 268.63223919 448.23582726 281.59261865 448.23821259 294.55300522 C448.23844174 295.84496604 448.23844174 295.84496604 448.23867553 297.16302709 C448.23929825 300.65975614 448.23993505 304.15648519 448.24059505 307.65321423 C448.24670603 340.42060792 448.24117709 373.18799061 448.23040126 405.95538261 C448.22090914 435.04039035 448.22176154 464.12538059 448.23132324 493.21038818 C448.2420416 525.92272424 448.24627424 558.63505058 448.24009871 591.34738815 C448.23945732 594.83694768 448.23883164 598.32650721 448.23821259 601.81606674 C448.23805443 602.67522294 448.23789628 603.53437915 448.23773333 604.41957038 C448.23546231 617.37031405 448.23811157 630.32105068 448.24317169 643.27179337 C448.24889849 658.00183547 448.24744282 672.73185763 448.2366102 687.46189727 C448.23075327 695.69681344 448.23033162 703.93168637 448.23790255 712.16660138 C448.24293902 718.32611654 448.23744601 724.48558113 448.2279534 730.64509009 C448.22572778 733.12865677 448.22683673 735.61222928 448.23170498 738.09579219 C448.25550831 751.25314667 447.90573 764.02343511 445.97058105 777.05072021 C445.6813702 779.22387756 445.39228166 781.39705119 445.10339355 783.57025146 C438.00209763 829.93495942 417.39555566 873.45513275 386.97058105 909.05072021 C386.32218262 909.81126709 385.67378418 910.57181396 385.0057373 911.35540771 C373.98630283 923.91883205 362.17662574 935.85990709 348.69763184 945.7723999 C346.92497773 947.08447467 345.17961227 948.4276537 343.4354248 949.77728271 C323.99819684 964.64659186 302.02511351 975.47107123 279.24645996 984.17962646 C277.26821578 984.93680038 275.29651137 985.7110178 273.3260498 986.48822021 C260.15763161 991.48690802 246.27017581 994.44255015 232.40808105 996.80072021 C231.73164551 996.91625244 231.05520996 997.03178467 230.35827637 997.15081787 C220.24507528 998.76452236 210.10542214 999.19918051 199.87864667 999.18067205 C198.13340241 999.18352091 198.13340241 999.18352091 196.35290068 999.18642732 C193.14019506 999.19067069 189.92752576 999.19049819 186.71481918 999.18841371 C183.20026356 999.18724512 179.68571458 999.19189216 176.17116156 999.19577044 C169.99339179 999.20178836 163.81562921 999.2041067 157.63785664 999.2039973 C148.38953595 999.20384644 139.14122464 999.20940554 129.89290665 999.2160442 C114.13024938 999.22718116 98.36759341 999.23351716 82.60493279 999.23721695 C66.63113374 999.24097308 50.65733762 999.24684908 34.68354034 999.2552948 C33.67464827 999.25582589 32.6657562 999.25635699 31.62629164 999.25690418 C27.51724343 999.25907091 23.40819523 999.26124753 19.29914704 999.26343811 C-30.49517729 999.28992952 -80.28950318 999.30550133 -130.08383258 999.318601 C-146.22703113 999.3228513 -162.37022957 999.32741893 -178.51342797 999.33218431 C-263.07422287 999.35708815 -347.63501811 999.37915119 -432.19581588 999.39137469 C-438.38421062 999.39227207 -444.57260535 999.39318677 -450.76100009 999.39410243 C-452.60237394 999.39437485 -452.60237394 999.39437485 -454.48094726 999.39465277 C-466.91812436 999.39649545 -479.35530144 999.39836131 -491.79247853 999.40025086 C-494.28617192 999.40062891 -496.77986531 999.40100521 -499.2735587 999.40137975 C-579.40177044 999.4134158 -659.52996049 999.44311706 -739.65816201 999.48479486 C-797.23874269 999.51473582 -854.81931892 999.54236804 -912.39990711 999.55207253 C-913.58349006 999.55227308 -914.767073 999.55247364 -915.9865221 999.55268027 C-941.96598481 999.55703035 -967.94544749 999.55997642 -993.92491051 999.56160678 C-1004.37712859 999.56228315 -1014.82934665 999.56313867 -1025.28156471 999.56404495 C-1026.42550163 999.56413905 -1027.56943854 999.56423314 -1028.74804021 999.56433009 C-1065.62427416 999.56744456 -1102.50048053 999.5859665 -1139.37670453 999.61239492 C-1176.50391475 999.6389157 -1213.63109415 999.64969865 -1250.75831324 999.63865894 C-1255.8844026 999.63713732 -1261.01049199 999.63579192 -1266.13658142 999.634552 C-1267.64390646 999.63417741 -1267.64390646 999.63417741 -1269.18168252 999.63379525 C-1285.11623675 999.63029539 -1301.050731 999.64363272 -1316.98527082 999.66392973 C-1332.63993287 999.68352373 -1348.29451274 999.68539559 -1363.94917855 999.66820345 C-1373.13563668 999.65865277 -1382.32184244 999.66288869 -1391.5082747 999.6872258 C-1397.6029279 999.70201446 -1403.69739676 999.69879358 -1409.79204068 999.68069523 C-1413.25110687 999.67093455 -1416.70967848 999.66902217 -1420.16871041 999.68924844 C-1423.88410941 999.70679861 -1427.59817937 999.6937419 -1431.31353205 999.67286336 C-1432.38059872 999.68528962 -1433.44766538 999.69771587 -1434.5470674 999.71051867 C-1442.31940467 999.61770608 -1448.20293299 997.7367739 -1453.88209126 992.26604109 C-1459.1546708 986.5414986 -1461.54901022 981.01170591 -1461.46691895 973.17572021 C-1461.48689941 972.50669678 -1461.50687988 971.83767334 -1461.52746582 971.14837646 C-1461.51779586 961.11095663 -1455.48522571 954.99743181 -1448.79848641 948.30812454 C-1447.65190199 947.17364088 -1446.50513328 946.03934345 -1445.35820007 944.9052124 C-1444.13793982 943.68392325 -1442.91856118 942.4617527 -1441.69998723 941.23878098 C-1438.35660225 937.88840408 -1435.00090306 934.55060527 -1431.64304483 931.21474266 C-1428.02082541 927.61187394 -1424.41020366 923.99741549 -1420.798172 920.38433838 C-1414.5393902 914.12686928 -1408.27338548 907.8767094 -1402.00246239 901.63140869 C-1392.9276662 892.5935805 -1383.86444281 883.5442188 -1374.80408017 874.49192381 C-1360.09277703 859.79425236 -1345.37293157 845.10516777 -1330.64733887 830.42181396 C-1316.362393 816.17779279 -1302.08020067 801.93102275 -1287.8026123 787.67962646 C-1286.92347033 786.80210079 -1286.04432836 785.92457511 -1285.13854571 785.02045774 C-1275.53833841 775.43773551 -1265.9389461 765.85419723 -1256.34019184 756.27001953 C-1255.49623833 755.42735385 -1254.65228482 754.58468817 -1253.78275696 753.71648717 C-1248.72159394 748.66304441 -1248.72159394 748.66304441 -1243.66051582 743.60951662 C-1233.78721142 733.75084661 -1223.91142433 723.89467837 -1214.03116975 714.04297352 C-1207.83254531 707.86221441 -1201.63547678 701.67989856 -1195.4396176 695.49636745 C-1191.18034765 691.2457944 -1186.9190066 686.99731321 -1182.65600557 682.75048232 C-1180.06526617 680.16849781 -1177.4766434 677.58439946 -1174.8886309 674.99968195 C-1173.70648682 673.81988525 -1172.52348203 672.64095018 -1171.33951428 671.46298361 C-1169.72475034 669.85617339 -1168.11318435 668.24621858 -1166.5023222 666.63549805 C-1165.60797079 665.74369465 -1164.71361938 664.85189125 -1163.79216641 663.93306351 C-1161.70167479 661.75207717 -1159.71666597 659.55540713 -1157.74736381 657.26953799 C-1153.72055709 652.63087696 -1149.41768294 648.30063046 -1145.06939793 643.96485806 C-1144.18576347 643.07977016 -1143.30212902 642.19468226 -1142.39171776 641.28277352 C-1139.94830283 638.83548171 -1137.50180752 636.39129015 -1135.05477877 633.94761249 C-1132.38955641 631.28493429 -1129.72724278 628.61935033 -1127.06455129 625.95414168 C-1122.40048905 621.28647187 -1117.73457446 616.6206602 -1113.0674324 611.95606995 C-1106.12719764 605.01961951 -1099.18982576 598.08031107 -1092.25301121 591.14044045 C-1079.86337136 578.74553542 -1067.4708724 566.35349206 -1055.07715559 553.96266374 C-1044.23122309 543.1192466 -1033.38622025 532.27490075 -1022.54214287 521.42962837 C-1021.82288472 520.71029384 -1021.10362657 519.9909593 -1020.36257272 519.24982675 C-1017.44288495 516.32982765 -1014.52320071 513.40982501 -1011.60352229 510.48981656 C-984.21355626 483.09679139 -956.82067456 455.70668352 -929.42648799 428.31787915 C-905.08733585 403.98347264 -880.75077015 379.64648231 -856.41638184 355.30731201 C-829.07772401 327.96329979 -801.73745156 300.62090364 -774.39457124 273.28111368 C-771.47988124 270.3667444 -768.56519518 267.45237118 -765.65051079 264.53799629 C-764.93283742 263.82040201 -764.21516406 263.10280772 -763.47574302 262.36346815 C-752.63720065 251.52606335 -741.79989287 240.68742501 -730.96318245 229.8481884 C-718.64161225 217.52376019 -706.31825908 205.20111795 -693.99254615 192.88083284 C-687.09397249 185.98519687 -680.19677679 179.08818941 -673.30155811 172.18919863 C-668.6959554 167.58135426 -664.08853767 162.97533008 -659.47963808 158.37078336 C-656.85357986 155.74710439 -654.22831175 153.12264815 -651.6052419 150.49598121 C-648.77795522 147.66485696 -645.94681115 144.8376215 -643.11528111 142.01074123 C-641.89841722 140.7903656 -641.89841722 140.7903656 -640.65697023 139.54533592 C-636.46445016 135.36659812 -632.19309803 131.34515203 -627.70184591 127.48822192 C-625.55520634 125.6431201 -623.48364377 123.72116787 -621.40441895 121.80072021 C-615.82621643 116.77355594 -609.95504562 112.18260805 -604.01574707 107.59564209 C-601.91963115 105.96532971 -599.84083724 104.31462565 -597.76379395 102.66009521 C-587.53345645 94.54377995 -577.03685559 87.07438378 -566.02941895 80.05072021 C-565.21102539 79.52623291 -564.39263184 79.00174561 -563.54943848 78.46136475 C-521.7847209 51.81103988 -476.03692543 30.66129981 -428.02941895 18.05072021 C-427.05794922 17.79226318 -426.08647949 17.53380615 -425.08557129 17.26751709 C-410.27443314 13.37579801 -395.44078397 10.24930713 -380.34191895 7.73822021 C-379.60758636 7.61520538 -378.87325378 7.49219055 -378.1166687 7.365448 C-361.75476728 4.6487506 -345.33714263 2.8405356 -328.77526855 1.95159912 C-328.0080019 1.90983842 -327.24073524 1.86807772 -326.45021808 1.82505155 C-303.63782696 0.62166589 -280.79707512 0.69480131 -257.95942354 0.64606643 C-251.96081554 0.6314585 -245.96224449 0.60797872 -239.96366367 0.58513703 C-225.3426884 0.52998111 -210.72169131 0.49028094 -196.10065784 0.45444275 C-195.34405891 0.45258665 -194.58745998 0.45073055 -193.80793381 0.44881821 C-193.04929023 0.44695844 -192.29064665 0.44509867 -191.50901388 0.44318255 C-183.80804458 0.42411756 -176.10708428 0.40214955 -168.40612369 0.37987793 C-130.89774737 0.27148951 -93.38935223 0.18495509 -55.88088703 0.11403179 C-52.28786023 0.10723387 -48.69483343 0.1004321 -45.10180664 0.09362793 C-44.20503176 0.09193323 -43.30825687 0.09023854 -42.38430699 0.08849249 C-28.25619821 0.06171622 -14.12809853 0.03169965 0 0 Z " fill="#000000" transform="translate(2430.0294189453125,1881.9492797851563)"/>
</svg>
