<?xml version="1.0" standalone="no"?>
<!DOCTYPE svg PUBLIC "-//W3C//DTD SVG 20010904//EN"
 "http://www.w3.org/TR/2001/REC-SVG-20010904/DTD/svg10.dtd">
<svg version="1.0" xmlns="http://www.w3.org/2000/svg"
 width="1684.000000pt" height="1684.000000pt" viewBox="0 0 1684.000000 1684.000000"
 preserveAspectRatio="xMidYMid meet">

<g transform="translate(0.000000,1684.000000) scale(0.100000,-0.100000)"
fill="#000000" stroke="none">
<path d="M4991 12595 c-100 -22 -159 -44 -248 -90 -265 -140 -447 -392 -493
-685 -6 -43 -10 -1279 -10 -3652 0 -3520 0 -3587 19 -3649 26 -83 74 -151 143
-204 125 -94 292 -112 433 -47 68 32 177 140 3866 3830 2089 2088 3809 3816
3823 3839 137 223 53 514 -183 631 l-75 37 -3605 2 c-3044 1 -3616 -1 -3670
-12z"/>
<path d="M10720 7730 c-849 -5 -944 -7 -1030 -24 -344 -66 -612 -198 -865
-424 -87 -78 -1618 -1609 -2593 -2592 -346 -350 -341 -344 -307 -410 10 -20
28 -33 53 -40 26 -8 870 -10 2937 -8 l2900 3 84 23 c95 25 226 84 298 133 26
18 79 62 117 98 118 114 192 234 243 398 l28 88 3 1150 c2 847 0 1165 -8 1205
-37 175 -174 324 -349 382 -81 26 -156 27 -1511 18z"/>
</g>
</svg>
